<?xml version="1.0" encoding="UTF-8"?>
<svg width="25px" height="18px" viewBox="0 0 25 18" version="1.1" xmlns="http://www.w3.org/2000/svg" xmlns:xlink="http://www.w3.org/1999/xlink">
    <!-- Generator: Sketch 47.1 (45422) - http://www.bohemiancoding.com/sketch -->
    <title>Shape</title>
    <desc>Created with Sketch.</desc>
    <defs></defs>
    <g id="Page-1" stroke="none" stroke-width="1" fill="none" fill-rule="evenodd">
        <g id="Portfolio-Landing-Page" transform="translate(-1055.000000, -3442.000000)" fill-rule="nonzero" fill="#FFFFFF">
            <g id="Contact" transform="translate(221.000000, 3259.000000)">
                <g id="Details" transform="translate(95.000000, 148.000000)">
                    <g id="Cntact-button" transform="translate(603.000000, 17.000000)">
                        <g id="Group-3" transform="translate(48.000000, 17.000000)">
                            <g id="arrow" transform="translate(88.000000, 1.000000)">
                                <path d="M16.5664063,0.788086957 C16.23125,0.440608696 15.6734375,0.440608696 15.3265625,0.788086957 C14.9914063,1.12382609 14.9914063,1.6826087 15.3265625,2.01756522 L21.6132813,8.31521739 L0.86796875,8.31521739 C0.384375,8.316 0,8.70104348 0,9.18547826 C0,9.66991304 0.384375,10.0674783 0.86796875,10.0674783 L21.6132813,10.0674783 L15.3265625,16.3533913 C14.9914063,16.7008696 14.9914063,17.2604348 15.3265625,17.5953913 C15.6734375,17.9428696 16.2320313,17.9428696 16.5664063,17.5953913 L24.3414063,9.80686957 C24.6882813,9.47113043 24.6882813,8.91234783 24.3414063,8.5773913 L16.5664063,0.788086957 Z" id="Shape"></path>
                            </g>
                        </g>
                    </g>
                </g>
            </g>
        </g>
    </g>
</svg>