<?xml version="1.0" encoding="UTF-8"?>
<svg width="20px" height="20px" viewBox="0 0 20 20" version="1.1" xmlns="http://www.w3.org/2000/svg" xmlns:xlink="http://www.w3.org/1999/xlink">
    <!-- Generator: Sketch 47.1 (45422) - http://www.bohemiancoding.com/sketch -->
    <title>Shape</title>
    <desc>Created with Sketch.</desc>
    <defs></defs>
    <g id="Page-1" stroke="none" stroke-width="1" fill="none" fill-rule="evenodd">
        <g id="Portfolio-Landing-Page" transform="translate(-1468.000000, -3783.000000)" fill-rule="nonzero" fill="#FFFFFF">
            <g id="Footer-details" transform="translate(1.000000, 3653.000000)">
                <g id="Social-logo" transform="translate(1467.000000, 130.000000)">
                    <g id="facebook">
                        <g id="Social-media">
                            <path d="M19.4226324,10.2886838 C19.4226324,4.92537143 15.0745968,0.577367631 9.71131618,0.577367631 C4.3480038,0.577367631 0,4.92537143 0,10.2886838 C0,15.6519645 4.3480038,20 9.71131618,20 C15.0745968,20 19.4226324,15.6519645 19.4226324,10.2886838 Z M7.10338348,10.2886838 L7.10338348,8.43029969 L8.24224159,8.43029969 L8.24224159,7.30642113 C8.24224159,5.79056719 8.69515072,4.69848843 10.3548972,4.69848843 L12.3289285,4.69848843 L12.3289285,6.5524612 L10.9393534,6.5524612 C10.2427727,6.5524612 10.0847258,7.01508164 10.0847258,7.49975884 L10.0847258,8.43026796 L12.2265153,8.43026796 L11.934319,10.2886838 L10.0847893,10.2886838 L10.0847893,15.8938588 L8.24224159,15.8938588 L8.24224159,10.2886838 L7.10338348,10.2886838 Z" id="Shape"></path>
                        </g>
                    </g>
                </g>
            </g>
        </g>
    </g>
</svg>