<?xml version="1.0" encoding="UTF-8"?>
<svg width="20px" height="20px" viewBox="0 0 20 20" version="1.1" xmlns="http://www.w3.org/2000/svg" xmlns:xlink="http://www.w3.org/1999/xlink">
    <!-- Generator: Sketch 47.1 (45422) - http://www.bohemiancoding.com/sketch -->
    <title>Shape</title>
    <desc>Created with Sketch.</desc>
    <defs></defs>
    <g id="Page-1" stroke="none" stroke-width="1" fill="none" fill-rule="evenodd">
        <g id="Portfolio-Landing-Page" transform="translate(-1582.000000, -3784.000000)" fill-rule="nonzero" fill="#FFFFFF">
            <g id="Footer-details" transform="translate(1.000000, 3653.000000)">
                <g id="Social-logo" transform="translate(1467.000000, 130.000000)">
                    <g id="facebook">
                        <g id="Social-media">
                            <path d="M123.711316,1 C118.347888,1 114,5.34788789 114,10.7113162 C114,16.0747445 118.347888,20.4226324 123.711316,20.4226324 C129.074744,20.4226324 133.422632,16.0747445 133.422632,10.7113162 C133.422632,5.34788789 129.074744,1 123.711316,1 Z M120.072578,17.2863988 L117.342481,17.2863988 L117.342481,8.50240157 L120.072578,8.50240157 L120.072578,17.2863988 L120.072578,17.2863988 Z M118.708126,7.30167556 C117.833064,7.30167556 117.124709,6.59232724 117.124709,5.71845781 C117.124908,4.84538316 117.833064,4.13603485 118.708126,4.13603485 C119.580803,4.13603485 120.290151,4.84538316 120.290151,5.71845781 C120.290151,6.59252594 119.580604,7.30167556 118.708126,7.30167556 Z M130.297725,17.2863988 L127.569813,17.2863988 L127.569813,13.0146119 C127.569813,11.9958923 127.550937,10.6856843 126.150719,10.6856843 C124.730831,10.6856843 124.512463,11.7952084 124.512463,12.9408953 L124.512463,17.2862001 L121.78475,17.2862001 L121.78475,8.50240157 L124.403179,8.50240157 L124.403179,9.70273018 L124.439938,9.70273018 C124.804547,9.01205939 125.69471,8.28403356 127.022999,8.28403356 C129.787471,8.28403356 130.297725,10.1033033 130.297725,12.4683938 L130.297725,17.2863988 Z" id="Shape"></path>
                        </g>
                    </g>
                </g>
            </g>
        </g>
    </g>
</svg>