<?xml version="1.0" encoding="UTF-8"?>
<svg width="20px" height="20px" viewBox="0 0 20 20" version="1.1" xmlns="http://www.w3.org/2000/svg" xmlns:xlink="http://www.w3.org/1999/xlink">
    <!-- Generator: Sketch 47.1 (45422) - http://www.bohemiancoding.com/sketch -->
    <title>Shape</title>
    <desc>Created with Sketch.</desc>
    <defs></defs>
    <g id="Page-1" stroke="none" stroke-width="1" fill="none" fill-rule="evenodd">
        <g id="Portfolio-Landing-Page" transform="translate(-1506.000000, -3783.000000)" fill-rule="nonzero" fill="#FFFFFF">
            <g id="Footer-details" transform="translate(1.000000, 3653.000000)">
                <g id="Social-logo" transform="translate(1467.000000, 130.000000)">
                    <g id="facebook">
                        <g id="Social-media">
                            <path d="M47.7113162,0.577367631 C42.3480038,0.577367631 38,4.92537143 38,10.2886838 C38,15.6519645 42.3480038,20 47.7113162,20 C53.0745968,20 57.4226324,15.6519645 57.4226324,10.2886838 C57.4226324,4.92537143 53.0745968,0.577367631 47.7113162,0.577367631 Z M48.6047573,13.2294354 C47.8870085,13.2294354 47.2116277,12.8330487 46.9794447,12.3827736 C46.9794447,12.3827736 46.5936262,13.9471842 46.5115243,14.2491236 C46.3737887,14.759412 46.1080604,15.2688435 45.861723,15.6723075 C45.5103701,16.1313734 45.105129,15.7906205 45.0565724,15.3721135 C45.0407042,14.9059704 45.057461,14.3542026 45.1731082,13.85188 C45.3011325,13.3010008 46.0285926,10.1518685 46.0285926,10.1518685 C46.0285926,10.1518685 45.8158323,9.71838201 45.8158323,9.07743514 C45.8158323,8.07098099 46.3870545,7.31968691 47.0986146,7.31968691 C47.7033504,7.31968691 47.9955785,7.78408459 47.9955785,8.33937511 C47.9955785,8.96001073 47.6080144,9.88877435 47.4084881,10.7486701 C47.2416185,11.4690848 47.7625069,12.0561751 48.4581989,12.0561751 C49.7180042,12.0561751 50.5673318,10.4034741 50.5673318,8.44619959 C50.5673318,6.9577341 49.5855685,5.84445547 47.7996066,5.84445547 C45.782287,5.84445547 44.5251159,7.38058893 44.5251159,9.09596916 C44.5251159,9.68747083 44.6955082,10.1050574 44.9639023,10.4273081 C45.0866267,10.5756437 45.1042721,10.6356571 45.0592382,10.8060812 C45.0274702,10.9314397 44.954191,11.2316018 44.9241684,11.3507717 C44.8800232,11.5229413 44.7431762,11.5838751 44.5913178,11.5203072 C43.6616973,11.1327114 43.2290995,10.0936006 43.2290995,8.92649717 C43.2290995,6.99746798 44.8226439,4.6843975 47.9823444,4.6843975 C50.5214093,4.6843975 52.1926443,6.56045875 52.1926443,8.57422394 C52.1935012,11.2395042 50.7429923,13.2294354 48.6047573,13.2294354 Z" id="Shape"></path>
                        </g>
                    </g>
                </g>
            </g>
        </g>
    </g>
</svg>