<?xml version="1.0" encoding="UTF-8"?>
<svg width="20px" height="20px" viewBox="0 0 20 20" version="1.1" xmlns="http://www.w3.org/2000/svg" xmlns:xlink="http://www.w3.org/1999/xlink">
    <!-- Generator: Sketch 47.1 (45422) - http://www.bohemiancoding.com/sketch -->
    <title>Shape</title>
    <desc>Created with Sketch.</desc>
    <defs></defs>
    <g id="Page-1" stroke="none" stroke-width="1" fill="none" fill-rule="evenodd">
        <g id="Portfolio-Landing-Page" transform="translate(-1544.000000, -3783.000000)" fill-rule="nonzero" fill="#FFFFFF">
            <g id="Footer-details" transform="translate(1.000000, 3653.000000)">
                <g id="Social-logo" transform="translate(1467.000000, 130.000000)">
                    <g id="facebook">
                        <g id="Social-media">
                            <path d="M85.7113162,0.577367631 C80.3478879,0.577367631 76,4.92525552 76,10.2886838 C76,15.6521121 80.3478879,20 85.7113162,20 C91.0747445,20 95.4226324,15.6521121 95.4226324,10.2886838 C95.4226324,4.92525552 91.0747445,0.577367631 85.7113162,0.577367631 Z M91.5838062,7.69886703 C91.5883762,7.81351521 91.5907606,7.92836208 91.5907606,8.04380504 C91.5907606,12.1922011 88.4340613,16.483063 83.1515027,16.483063 C81.5366921,16.483063 79.9644027,16.0222846 78.6047191,15.1502035 C78.5763054,15.132122 78.5645823,15.0969527 78.575908,15.0653598 C78.5872337,15.0339657 78.6192239,15.0144934 78.6520089,15.0182687 C78.8801131,15.0454901 79.1133834,15.0590015 79.3448654,15.0590015 C80.6012266,15.0590015 81.7906269,14.6705489 82.7966298,13.9335817 C81.5907377,13.8318488 80.5543341,13.0158002 80.1815785,11.8516345 C80.1738293,11.8273934 80.1793928,11.8009667 80.1960834,11.7818918 C80.2129726,11.7628169 80.2388032,11.7544716 80.2634417,11.7590417 C80.59765,11.822426 80.9374219,11.8265986 81.2648746,11.7733478 C80.02123,11.3868822 79.1471619,10.2219216 79.1471619,8.8956191 L79.1475593,8.85707188 C79.1481554,8.83183736 79.1618655,8.80878851 79.1837221,8.7962706 C79.2053801,8.78355399 79.2324029,8.7833553 79.2542596,8.79567451 C79.5785331,8.975694 79.9373799,9.09133566 80.3055654,9.13564509 C79.5908523,8.56598077 79.1712042,7.70244358 79.1712042,6.7787012 C79.1712042,6.24579583 79.3122791,5.72203052 79.5793279,5.26403392 C79.5912497,5.24356813 79.6123116,5.23045413 79.6357578,5.22866585 C79.6594028,5.22628149 79.6822529,5.23661373 79.6971552,5.25489386 C81.1599626,7.04912782 83.3116524,8.15388318 85.6125638,8.29595154 C85.5742153,8.10281805 85.5547429,7.90372365 85.5547429,7.70284097 C85.5547429,6.0415353 86.90628,4.69019696 88.567387,4.69019696 C89.3840316,4.69019696 90.1732562,5.02579621 90.7389465,5.61234977 C91.3765652,5.48240193 91.983982,5.24793946 92.5451023,4.91532067 C92.5707342,4.900021 92.6029232,4.90240537 92.6265681,4.92088419 C92.6496169,4.93956171 92.6591544,4.97055844 92.6500143,4.99917081 C92.4598613,5.59387095 92.0890927,6.11266883 91.5909593,6.48721269 C92.0600829,6.40554822 92.5152978,6.2676525 92.9482585,6.07551249 C92.9772683,6.06219979 93.0116429,6.07054507 93.0325061,6.0949848 C93.0531706,6.11962323 93.0549588,6.1547926 93.0370761,6.181418 C92.6426626,6.7717468 92.1538679,7.28219941 91.5838062,7.69886703 Z" id="Shape"></path>
                        </g>
                    </g>
                </g>
            </g>
        </g>
    </g>
</svg>